<svg preserveAspectRatio="none" overflow="visible" style="display: block;" width="128" height="100" viewBox="0 0 128 100" fill="none" xmlns="http://www.w3.org/2000/svg">
<g id="Capa_1" clip-path="url(#clip0_0_73)">
<path id="Vector" d="M125.214 75.1432V73.1566H125.928C126.08 73.1566 126.191 73.1778 126.261 73.2131C126.33 73.2485 126.392 73.3121 126.434 73.397C126.475 73.4818 126.503 73.5808 126.503 73.6939C126.503 73.8423 126.462 73.9625 126.385 74.0544C126.309 74.1463 126.198 74.21 126.046 74.2312C126.108 74.2665 126.15 74.3019 126.184 74.3443C126.247 74.4221 126.302 74.5069 126.351 74.5988L126.635 75.1361H126.365L126.15 74.726C126.067 74.5634 126.004 74.4574 125.963 74.4008C125.921 74.3443 125.879 74.3089 125.838 74.2877C125.796 74.2665 125.741 74.2595 125.672 74.2595H125.422V75.1361H125.207L125.214 75.1432ZM125.429 74.0332H125.886C125.99 74.0332 126.06 74.0191 126.115 73.9979C126.171 73.9767 126.205 73.9343 126.24 73.8848C126.268 73.8353 126.288 73.7716 126.288 73.701C126.288 73.602 126.261 73.5242 126.198 73.4677C126.143 73.4111 126.053 73.3828 125.942 73.3828H125.429V74.0403V74.0332Z" fill="#F4F5ED"/>
<path id="Vector_2" d="M125.928 72.0608C124.785 72.0608 123.856 72.994 123.856 74.1463C123.856 75.2987 124.785 76.2319 125.928 76.2319C127.071 76.2319 128 75.2987 128 74.1463C128 72.994 127.071 72.0608 125.928 72.0608ZM127.667 74.1534C127.667 75.1149 126.884 75.9067 125.928 75.9067C124.972 75.9067 124.189 75.122 124.189 74.1534C124.189 73.1849 124.972 72.4002 125.928 72.4002C126.884 72.4002 127.667 73.1849 127.667 74.1534Z" fill="#F4F5ED"/>
<g id="Group 16445">
<path id="Vector_3" d="M0.221753 84.5311C0.0692978 84.3827 0 84.213 0 84.015V64.9906C0 64.7786 0.0692978 64.5947 0.200964 64.4463C0.339559 64.2978 0.512804 64.2271 0.727627 64.2271H14.2684C14.4832 64.2271 14.6634 64.2978 14.8089 64.4463C14.9545 64.5947 15.0307 64.7715 15.0307 64.9906V68.0942C15.0307 68.3063 14.9614 68.483 14.8089 68.6244C14.6634 68.7588 14.4832 68.8295 14.2684 68.8295H5.35672V72.9016H13.6863C13.9011 72.9016 14.0813 72.9723 14.2268 73.1207C14.3724 73.2692 14.4486 73.4459 14.4486 73.6651V76.7757C14.4486 76.9949 14.3793 77.1646 14.2268 77.3059C14.0813 77.4403 13.9011 77.511 13.6863 77.511H5.35672V84.0221C5.35672 84.2201 5.28742 84.3897 5.15576 84.5382C5.01716 84.6866 4.84392 84.7573 4.62909 84.7573H0.727627C0.533593 84.7573 0.360349 84.6866 0.214823 84.5382" fill="#F4F4F4"/>
<path id="Vector_4" d="M18.3009 84.5312C18.1554 84.3828 18.0792 84.2131 18.0792 84.0151V64.9554C18.0792 64.7433 18.1485 64.5666 18.3009 64.4252C18.4464 64.2908 18.6128 64.2201 18.8137 64.2201H22.9785C23.1933 64.2201 23.3666 64.2908 23.4983 64.4252C23.6299 64.5595 23.6992 64.7362 23.6992 64.9554V84.0151C23.6992 84.2131 23.6299 84.3828 23.4983 84.5312C23.3597 84.6797 23.1864 84.7504 22.9785 84.7504H18.8137C18.6197 84.7504 18.4534 84.6797 18.3009 84.5312Z" fill="#F4F4F4"/>
<path id="Vector_5" d="M30.5886 83.8808C29.265 83.3365 28.2671 82.6083 27.588 81.7104C26.9089 80.8126 26.5485 79.837 26.5139 78.7765C26.5139 78.5998 26.5763 78.4513 26.701 78.3382C26.8257 78.218 26.9782 78.1615 27.1514 78.1615H31.0252C31.2539 78.1615 31.4479 78.2039 31.5934 78.2817C31.7389 78.3594 31.8983 78.4938 32.0716 78.6917C32.321 79.1583 32.716 79.5471 33.2496 79.8511C33.7832 80.1551 34.497 80.3036 35.3909 80.3036C36.4373 80.3036 37.2412 80.141 37.8094 79.8228C38.3707 79.4976 38.6549 79.0593 38.6549 78.4867C38.6549 78.0766 38.5093 77.7373 38.2183 77.4757C37.9272 77.2141 37.4629 76.9738 36.8185 76.7688C36.1809 76.5637 35.2523 76.3375 34.0535 76.083C31.7043 75.6164 29.9441 74.9024 28.7799 73.9409C27.6157 72.9865 27.0336 71.615 27.0336 69.8334C27.0336 68.6245 27.3663 67.5429 28.0384 66.5956C28.7106 65.6482 29.66 64.913 30.8935 64.3828C32.127 63.8525 33.5545 63.591 35.19 63.591C36.8254 63.591 38.3777 63.8879 39.632 64.4888C40.8863 65.0827 41.8426 65.825 42.5148 66.7157C43.1869 67.6065 43.5404 68.4831 43.575 69.3386C43.575 69.5153 43.5196 69.6638 43.4018 69.791C43.284 69.9183 43.1384 69.9819 42.9652 69.9819H38.8905C38.4608 69.9819 38.1351 69.8052 37.8995 69.4517C37.7817 69.0416 37.4837 68.6952 36.9987 68.4124C36.5136 68.1297 35.9107 67.9883 35.1969 67.9883C34.3792 67.9883 33.7486 68.1367 33.3051 68.4266C32.8546 68.7164 32.6329 69.1477 32.6329 69.7133C32.6329 70.2788 32.9239 70.7242 33.506 71.0494C34.0881 71.3746 35.1761 71.6998 36.77 72.0321C38.5925 72.3644 40.0478 72.7815 41.1219 73.2764C42.196 73.7712 42.9929 74.4216 43.5126 75.2134C44.0255 76.0052 44.2819 77.0091 44.2819 78.218C44.2819 79.5471 43.9007 80.6995 43.1454 81.6751C42.39 82.6507 41.3436 83.4001 39.9992 83.9162C38.6618 84.4322 37.1234 84.6938 35.3979 84.6938C33.513 84.6938 31.9122 84.4181 30.5955 83.8737" fill="#F4F4F4"/>
<path id="Vector_6" d="M46.9218 84.5452C46.7832 84.4108 46.7208 84.2341 46.7208 84.022V64.9976C46.7208 64.7855 46.7901 64.6017 46.9218 64.4533C47.0535 64.3048 47.2336 64.2341 47.4485 64.2341H51.44C51.6548 64.2341 51.835 64.3048 51.9805 64.4533C52.1261 64.6017 52.2023 64.7785 52.2023 64.9976V71.9471H59.0766V64.9976C59.0766 64.7855 59.1459 64.6017 59.2915 64.4533C59.437 64.3048 59.6172 64.2341 59.832 64.2341H63.7958C64.0106 64.2341 64.1908 64.3048 64.3363 64.4533C64.4819 64.6017 64.5581 64.7785 64.5581 64.9976V84.022C64.5581 84.2341 64.4888 84.4108 64.3363 84.5452C64.1908 84.6795 64.0106 84.7502 63.7958 84.7502H59.832C59.6172 84.7502 59.437 84.6795 59.2915 84.5452C59.1459 84.4108 59.0766 84.2341 59.0766 84.022V76.8393H52.2023V84.022C52.2023 84.2341 52.133 84.4108 51.9805 84.5452C51.835 84.6795 51.6548 84.7502 51.44 84.7502H47.4485C47.2336 84.7502 47.0604 84.6795 46.9218 84.5452Z" fill="#F4F4F4"/>
<path id="Vector_7" d="M67.7037 84.5311C67.5582 84.3827 67.4819 84.213 67.4819 84.015V64.9906C67.4819 64.7786 67.5512 64.5947 67.6829 64.4463C67.8146 64.2978 67.9947 64.2271 68.2096 64.2271H77.2044C79.6714 64.2271 81.5009 64.7361 82.7067 65.7542C83.9125 66.7722 84.5153 68.2144 84.5153 70.0949C84.5153 71.0352 84.2659 71.8482 83.7739 72.5269C83.2749 73.2126 82.7275 73.7075 82.1315 74.0256C82.9284 74.3791 83.6006 74.9588 84.1411 75.7718C84.6817 76.5848 84.9589 77.4968 84.9589 78.5149C84.9589 80.4873 84.3144 82.0214 83.0254 83.1172C81.7365 84.213 79.8863 84.7573 77.4816 84.7573H68.2234C68.0294 84.7573 67.8562 84.6866 67.7176 84.5382M76.6015 72.3501C77.3222 72.3501 77.8697 72.1522 78.2647 71.7634C78.6528 71.3745 78.8468 70.8655 78.8468 70.2434C78.8468 69.6213 78.6597 69.1405 78.2785 68.7658C77.8974 68.3841 77.343 68.1932 76.6015 68.1932H72.9634V72.3572H76.6015V72.3501ZM76.8649 80.7913C77.6202 80.7913 78.2092 80.5721 78.625 80.1338C79.0408 79.6955 79.2487 79.1511 79.2487 78.5078C79.2487 77.8645 79.0339 77.2918 78.6112 76.8535C78.1815 76.4152 77.5994 76.196 76.8649 76.196H72.9634V80.7983H76.8649V80.7913Z" fill="#F4F4F4"/>
<path id="Vector_8" d="M89.3182 82.6791C87.7243 81.3288 86.8858 79.3493 86.7888 76.7264C86.768 76.1821 86.7611 75.3408 86.7611 74.2026C86.7611 73.0644 86.768 72.216 86.7888 71.6504C86.8651 69.07 87.7174 67.0835 89.339 65.6837C90.9606 64.2839 93.1296 63.584 95.8461 63.584C98.5625 63.584 100.704 64.2839 102.325 65.6837C103.947 67.0835 104.792 69.07 104.876 71.6504C104.917 72.7816 104.931 73.637 104.931 74.2026C104.931 74.7681 104.91 75.6306 104.876 76.7264C104.779 79.3493 103.94 81.3288 102.36 82.6791C100.78 84.0294 98.611 84.701 95.853 84.701C93.0949 84.701 90.919 84.0294 89.3321 82.6791M98.2576 79.3846C98.8605 78.7696 99.1793 77.8293 99.2209 76.5568C99.2624 75.4256 99.2763 74.6126 99.2763 74.1248C99.2763 73.637 99.2555 72.8452 99.2209 71.7494C99.1793 70.4769 98.8605 69.5366 98.2576 68.9216C97.6547 68.3065 96.8509 67.9954 95.8391 67.9954C94.8274 67.9954 93.9958 68.3065 93.3929 68.9216C92.79 69.5366 92.4713 70.4839 92.4297 71.7494C92.4089 72.2938 92.402 73.0856 92.402 74.1248C92.402 75.164 92.4089 75.9912 92.4297 76.5568C92.4713 77.8293 92.79 78.7696 93.3929 79.3846C93.9958 79.9997 94.8066 80.3107 95.8391 80.3107C96.8717 80.3107 97.6547 79.9997 98.2576 79.3846Z" fill="#F4F4F4"/>
<path id="Vector_9" d="M105.145 84.5594C105.021 84.4321 104.958 84.2908 104.958 84.1352C104.958 84.015 104.986 83.9019 105.048 83.7817L111.396 74.2801L105.547 65.1957C105.492 65.0755 105.457 64.9624 105.457 64.8422C105.457 64.6866 105.52 64.5453 105.644 64.418C105.769 64.2907 105.915 64.2271 106.067 64.2271H110.523C110.953 64.2271 111.299 64.4392 111.569 64.8705L114.861 69.9677L118.27 64.8705C118.541 64.4392 118.88 64.2271 119.289 64.2271H123.537C123.69 64.2271 123.835 64.2907 123.96 64.418C124.085 64.5453 124.147 64.6866 124.147 64.8422C124.147 64.9553 124.119 65.0755 124.057 65.1957L118.146 74.2236L124.549 83.7817C124.604 83.9019 124.639 84.015 124.639 84.1352C124.639 84.2908 124.577 84.4321 124.452 84.5594C124.327 84.6866 124.188 84.7503 124.029 84.7503H119.428C118.998 84.7503 118.659 84.5523 118.409 84.1635L114.681 78.7128L111.043 84.1635C110.793 84.5523 110.454 84.7503 110.024 84.7503H105.568C105.409 84.7503 105.27 84.6866 105.145 84.5594Z" fill="#F4F4F4"/>
</g>
<path id="Vector_10" d="M0.0900872 99.7596C0.0346489 99.696 0 99.6182 0 99.5193V89.9682C0 89.8621 0.0277191 89.7773 0.0900872 89.7137C0.145525 89.6501 0.228683 89.6218 0.3257 89.6218H3.99848C5.09339 89.6218 5.95268 89.8904 6.57636 90.4206C7.20004 90.9509 7.51188 91.7215 7.51188 92.7395C7.51188 93.7575 7.20004 94.521 6.57636 95.0513C5.95268 95.5815 5.09339 95.8431 3.99848 95.8431H1.37903V99.5263C1.37903 99.6253 1.34438 99.7031 1.28201 99.7667C1.21964 99.8303 1.13648 99.8586 1.03947 99.8586H0.31877C0.221753 99.8586 0.145525 99.8303 0.0831574 99.7667M3.92226 94.6483C5.38444 94.6483 6.11207 94.012 6.11207 92.7324C6.11207 92.1103 5.93189 91.6296 5.56461 91.2973C5.20427 90.965 4.64988 90.8024 3.91533 90.8024H1.37903V94.6483H3.92226Z" fill="#F4F4F4"/>
<path id="Vector_11" d="M9.39678 99.7596C9.34135 99.696 9.3067 99.6182 9.3067 99.5193V89.9682C9.3067 89.8621 9.33442 89.7773 9.39678 89.7137C9.45222 89.6501 9.52845 89.6218 9.62547 89.6218H15.5989C15.7029 89.6218 15.786 89.6501 15.8553 89.7137C15.9177 89.7773 15.9524 89.8621 15.9524 89.9682V90.4913C15.9524 90.5903 15.9177 90.6681 15.8553 90.7246C15.793 90.7812 15.7098 90.8095 15.5989 90.8095H10.6441V94.0686H15.2802C15.3841 94.0686 15.4673 94.0969 15.5366 94.1605C15.5989 94.2241 15.6336 94.3089 15.6336 94.415V94.9099C15.6336 95.0088 15.5989 95.0866 15.5366 95.1502C15.4742 95.2139 15.391 95.2421 15.2802 95.2421H10.6441V98.6214H15.7098C15.8138 98.6214 15.9038 98.6497 15.9662 98.7133C16.0286 98.777 16.0632 98.8618 16.0632 98.9678V99.4981C16.0632 99.597 16.0286 99.6748 15.9593 99.7384C15.89 99.8021 15.8068 99.8303 15.7098 99.8303H9.62547C9.52845 99.8303 9.45222 99.8021 9.39678 99.7384" fill="#F4F4F4"/>
<path id="Vector_12" d="M19.2648 99.6183C18.6758 99.3637 18.2323 99.0315 17.9273 98.6144C17.6224 98.1973 17.4631 97.7519 17.4423 97.2782C17.4423 97.2004 17.47 97.1297 17.5323 97.0732C17.5878 97.0166 17.664 96.9883 17.7472 96.9883H18.4609C18.6342 96.9883 18.752 97.0873 18.8213 97.2782C18.9114 97.6882 19.1608 98.0417 19.5697 98.3386C19.9786 98.6356 20.5676 98.784 21.3368 98.784C22.1614 98.784 22.7713 98.6356 23.1801 98.3457C23.589 98.0559 23.7899 97.6458 23.7899 97.1297C23.7899 96.7975 23.6929 96.5217 23.492 96.3097C23.291 96.0976 22.9999 95.9067 22.6049 95.7441C22.2099 95.5815 21.6278 95.3835 20.8379 95.1502C20.0894 94.9381 19.5004 94.7048 19.0569 94.4645C18.6134 94.2241 18.2808 93.9201 18.059 93.5666C17.8373 93.2132 17.7264 92.7607 17.7264 92.2163C17.7264 91.672 17.865 91.2195 18.1491 90.8024C18.4332 90.3853 18.8351 90.0601 19.3687 89.8197C19.9023 89.5794 20.5329 89.4592 21.2536 89.4592C21.9743 89.4592 22.6535 89.5935 23.194 89.8622C23.7345 90.1308 24.1434 90.4631 24.4206 90.8731C24.7047 91.2761 24.8502 91.6861 24.871 92.0962C24.871 92.181 24.8433 92.2588 24.7878 92.3153C24.7324 92.3719 24.6562 92.4072 24.5661 92.4072H23.8385C23.7622 92.4072 23.686 92.3789 23.6167 92.3365C23.5474 92.287 23.4989 92.2163 23.4712 92.1174C23.4157 91.7003 23.1801 91.3538 22.7713 91.0781C22.3624 90.8024 21.8565 90.6681 21.2467 90.6681C20.5884 90.6681 20.0686 90.7953 19.6806 91.0569C19.2925 91.3185 19.0985 91.7003 19.0985 92.2022C19.0985 92.5415 19.1886 92.8243 19.3687 93.0364C19.5489 93.2556 19.8261 93.4394 20.1934 93.6091C20.5676 93.7717 21.1081 93.9625 21.8288 94.1817C22.6535 94.415 23.2979 94.6483 23.7692 94.8816C24.2404 95.1149 24.5869 95.4047 24.8225 95.7512C25.0581 96.0976 25.169 96.543 25.169 97.0873C25.169 98.0064 24.8225 98.7204 24.1295 99.2294C23.4365 99.7384 22.501 100 21.316 100C20.5191 100 19.833 99.8728 19.244 99.6183" fill="#F4F4F4"/>
<path id="Vector_13" d="M27.7954 98.9395C27.1232 98.2326 26.7628 97.264 26.7143 96.0339C26.7074 95.7724 26.7004 95.3411 26.7004 94.7473C26.7004 94.1534 26.7004 93.701 26.7143 93.4323C26.7628 92.2022 27.1232 91.2336 27.7954 90.5267C28.4675 89.8197 29.4516 89.4662 30.7336 89.4662C31.5929 89.4662 32.3274 89.6218 32.9303 89.9258C33.5332 90.2298 33.9836 90.6327 34.2886 91.1347C34.5935 91.6295 34.7598 92.1668 34.7875 92.7253C34.7875 92.8102 34.7529 92.8809 34.6905 92.9374C34.6281 92.994 34.5519 93.0152 34.4618 93.0152H33.7342C33.6372 93.0152 33.5609 92.994 33.4986 92.9445C33.4431 92.895 33.3946 92.8102 33.3669 92.6971C33.2006 91.9477 32.9026 91.4175 32.473 91.1205C32.0433 90.8165 31.4612 90.6681 30.7197 90.6681C29.0358 90.6681 28.1557 91.6154 28.0933 93.503C28.0864 93.7646 28.0795 94.1675 28.0795 94.719C28.0795 95.2704 28.0795 95.6805 28.0933 95.9632C28.1626 97.8438 29.0358 98.784 30.7197 98.784C31.4473 98.784 32.0294 98.6356 32.466 98.3316C32.9026 98.0276 33.2006 97.5044 33.3669 96.7692C33.3946 96.649 33.4362 96.5712 33.4986 96.5217C33.554 96.4722 33.6372 96.451 33.7342 96.451H34.4618C34.5519 96.451 34.6212 96.4793 34.6905 96.5288C34.7529 96.5854 34.7875 96.649 34.7875 96.7409C34.7598 97.3065 34.5935 97.8367 34.2886 98.3316C33.9836 98.8264 33.5332 99.2294 32.9303 99.5405C32.3274 99.8445 31.5998 100 30.7336 100C29.4446 100 28.4675 99.6465 27.7954 98.9395Z" fill="#F4F4F4"/>
<path id="Vector_14" d="M35.7577 99.7667C35.7022 99.7101 35.6676 99.6395 35.6676 99.5617L35.6953 99.3991L39.2988 89.9399C39.375 89.7278 39.5344 89.6218 39.7631 89.6218H40.6917C40.9204 89.6218 41.0797 89.7278 41.156 89.9399L44.7595 99.3991L44.7872 99.5617C44.7872 99.6395 44.7525 99.7101 44.6902 99.7667C44.6278 99.8233 44.5585 99.8515 44.4823 99.8515H43.8031C43.7061 99.8515 43.623 99.8233 43.5606 99.7738C43.4982 99.7172 43.4567 99.6607 43.4359 99.6041L42.6251 97.4974H37.8158L37.0189 99.6041C36.9427 99.7738 36.8179 99.8515 36.6585 99.8515H35.9586C35.8824 99.8515 35.8131 99.8233 35.7577 99.7667ZM38.2455 96.2884H42.2232L40.2343 91.0357L38.2455 96.2884Z" fill="#F4F4F4"/>
<path id="Vector_15" d="M50.234 98.9395C49.5618 98.2326 49.2014 97.264 49.1529 96.0339C49.146 95.7724 49.1391 95.3411 49.1391 94.7473C49.1391 94.1534 49.1391 93.701 49.1529 93.4323C49.2014 92.2022 49.5618 91.2336 50.234 90.5267C50.9062 89.8197 51.8902 89.4662 53.1722 89.4662C54.0315 89.4662 54.7661 89.6218 55.369 89.9258C55.9718 90.2298 56.4223 90.6327 56.7272 91.1347C57.0321 91.6295 57.1984 92.1668 57.2261 92.7253C57.2261 92.8102 57.1915 92.8809 57.1291 92.9374C57.0668 92.994 56.9905 93.0152 56.9004 93.0152H56.1728C56.0758 93.0152 55.9996 92.994 55.9372 92.9445C55.8818 92.895 55.8332 92.8102 55.8055 92.6971C55.6392 91.9477 55.3412 91.4175 54.9116 91.1205C54.4819 90.8165 53.8998 90.6681 53.1584 90.6681C51.4744 90.6681 50.5943 91.6154 50.532 93.503C50.525 93.7646 50.5181 94.1675 50.5181 94.719C50.5181 95.2704 50.5181 95.6805 50.532 95.9632C50.6013 97.8438 51.4744 98.784 53.1584 98.784C53.886 98.784 54.4681 98.6356 54.8977 98.3316C55.3343 98.0276 55.6323 97.5044 55.7986 96.7692C55.8263 96.649 55.8679 96.5712 55.9303 96.5217C55.9857 96.4722 56.0619 96.451 56.1659 96.451H56.8935C56.9836 96.451 57.0598 96.4793 57.1222 96.5288C57.1846 96.5854 57.2192 96.649 57.2192 96.7409C57.1915 97.3065 57.0252 97.8367 56.7203 98.3316C56.4154 98.8264 55.9649 99.2294 55.362 99.5405C54.7591 99.8445 54.0315 100 53.1653 100C51.8763 100 50.8992 99.6465 50.2271 98.9395" fill="#F4F4F4"/>
<path id="Vector_16" d="M59.9149 98.9961C59.2288 98.3316 58.8616 97.3206 58.8269 95.9774C58.82 95.6875 58.8131 95.2704 58.8131 94.7331C58.8131 94.1958 58.8131 93.7858 58.8269 93.503C58.8685 92.1739 59.2427 91.17 59.9495 90.4913C60.6633 89.8126 61.6196 89.4662 62.8323 89.4662C64.045 89.4662 65.0013 89.8056 65.7082 90.4913C66.415 91.1771 66.7892 92.181 66.8239 93.503C66.8447 94.0686 66.8516 94.4786 66.8516 94.7331C66.8516 94.9876 66.8447 95.3906 66.8239 95.9774C66.7823 97.3206 66.422 98.3316 65.7428 98.9961C65.0637 99.6607 64.0866 100 62.8323 100C61.578 100 60.6009 99.6677 59.9149 98.9961ZM64.6964 98.0771C65.1607 97.6034 65.4102 96.8823 65.4518 95.9067C65.4726 95.3199 65.4795 94.9311 65.4795 94.7331C65.4795 94.521 65.4726 94.1322 65.4518 93.5596C65.4102 92.5839 65.1607 91.8558 64.6964 91.3821C64.2321 90.9084 63.6085 90.6681 62.8393 90.6681C62.0701 90.6681 61.4464 90.9084 60.9751 91.3821C60.5039 91.8628 60.2545 92.5839 60.2267 93.5596C60.2198 93.8423 60.2129 94.2312 60.2129 94.7331C60.2129 95.2351 60.2129 95.6098 60.2267 95.9067C60.2545 96.8823 60.5039 97.6034 60.9682 98.0771C61.4325 98.5507 62.0562 98.784 62.8393 98.784C63.6223 98.784 64.2321 98.5507 64.6964 98.0771Z" fill="#F4F4F4"/>
<path id="Vector_17" d="M69.0969 99.7596C69.0414 99.696 69.0068 99.6182 69.0068 99.5193V89.9682C69.0068 89.8621 69.0345 89.7773 69.0969 89.7137C69.1523 89.6501 69.2354 89.6218 69.3255 89.6218H69.9631C70.0601 89.6218 70.1363 89.643 70.1779 89.6783C70.2264 89.7207 70.2749 89.7632 70.3234 89.8268L75.1881 97.3701V89.9682C75.1881 89.8621 75.2228 89.7773 75.2851 89.7137C75.3475 89.6501 75.4307 89.6218 75.5208 89.6218H76.1722C76.2761 89.6218 76.3593 89.6501 76.4286 89.7137C76.4909 89.7773 76.5256 89.8621 76.5256 89.9682V99.5051C76.5256 99.6041 76.4909 99.6819 76.4286 99.7526C76.3662 99.8233 76.283 99.8586 76.186 99.8586H75.5346C75.3683 99.8586 75.2505 99.7879 75.1881 99.6536L70.3234 92.181V99.5263C70.3234 99.6253 70.2888 99.7031 70.2264 99.7667C70.164 99.8303 70.0809 99.8586 69.9908 99.8586H69.3186C69.2216 99.8586 69.1454 99.8303 69.0899 99.7667" fill="#F4F4F4"/>
<path id="Vector_18" d="M81.5774 99.7596C81.515 99.696 81.4804 99.6253 81.4804 99.5475C81.4804 99.491 81.4804 99.4415 81.4942 99.4132L84.876 90.0389C84.973 89.7561 85.167 89.6147 85.4581 89.6147H87.7241C88.0151 89.6147 88.2092 89.7561 88.3062 90.0389L91.6879 99.4132C91.6879 99.4132 91.7018 99.4839 91.7018 99.5475C91.7018 99.6253 91.6671 99.696 91.6048 99.7596C91.5424 99.8233 91.4731 99.8586 91.39 99.8586H89.5051C89.2764 99.8586 89.1101 99.7526 89.013 99.5334L88.4933 98.1124H84.6889L84.1691 99.5334C84.0721 99.7455 83.9058 99.8586 83.6771 99.8586H81.7853C81.709 99.8586 81.6398 99.8233 81.5774 99.7596ZM85.3056 95.9208H87.8904L86.6015 92.188L85.3056 95.9208Z" fill="#D50030"/>
<path id="Vector_19" d="M92.9214 99.7526C92.8521 99.6819 92.8106 99.597 92.8106 99.491V89.9965C92.8106 89.8904 92.8452 89.7985 92.9214 89.7278C92.9907 89.6571 93.0808 89.6147 93.1917 89.6147H94.8341C95.0766 89.6147 95.2498 89.7208 95.3607 89.9399L97.8554 94.4433L100.371 89.9399C100.475 89.7278 100.655 89.6147 100.891 89.6147H102.533C102.637 89.6147 102.727 89.6501 102.803 89.7278C102.873 89.7985 102.914 89.8904 102.914 89.9965V99.491C102.914 99.597 102.88 99.6889 102.803 99.7526C102.734 99.8233 102.644 99.8586 102.533 99.8586H100.69C100.593 99.8586 100.51 99.8233 100.433 99.7455C100.364 99.6748 100.322 99.59 100.322 99.491V94.1675L98.7563 97.0661C98.6316 97.2923 98.4583 97.4054 98.2504 97.4054H97.4674C97.2733 97.4054 97.107 97.2923 96.9615 97.0661L95.4092 94.1675V99.491C95.4092 99.597 95.3746 99.6889 95.2984 99.7526C95.2291 99.8233 95.139 99.8586 95.0281 99.8586H93.1986C93.0947 99.8586 93.0046 99.8233 92.9284 99.7526" fill="#D50030"/>
<path id="Vector_20" d="M105.839 98.989C105.042 98.3174 104.626 97.3277 104.577 96.0198C104.57 95.7441 104.563 95.327 104.563 94.7614C104.563 94.1958 104.563 93.7716 104.577 93.4889C104.619 92.2022 105.042 91.2124 105.845 90.5125C106.656 89.8126 107.737 89.4662 109.096 89.4662C110.454 89.4662 111.521 89.8126 112.325 90.5125C113.136 91.2124 113.558 92.2022 113.593 93.4889C113.614 94.0544 113.621 94.4786 113.621 94.7614C113.621 95.0442 113.614 95.4754 113.593 96.0198C113.544 97.3277 113.129 98.3174 112.339 98.989C111.549 99.6607 110.468 100 109.096 100C107.723 100 106.635 99.6607 105.839 98.989ZM110.301 97.3489C110.599 97.0449 110.759 96.5712 110.779 95.935C110.8 95.3694 110.807 94.9664 110.807 94.719C110.807 94.4715 110.8 94.0827 110.779 93.5313C110.759 92.895 110.599 92.4284 110.301 92.1174C110.003 91.8134 109.601 91.6578 109.096 91.6578C108.59 91.6578 108.174 91.8134 107.876 92.1174C107.578 92.4213 107.419 92.895 107.398 93.5313C107.391 93.807 107.384 94.2029 107.384 94.719C107.384 95.2351 107.384 95.6522 107.398 95.935C107.419 96.5712 107.578 97.0378 107.876 97.3489C108.174 97.6599 108.583 97.8084 109.096 97.8084C109.608 97.8084 110.003 97.6529 110.301 97.3489Z" fill="#D50030"/>
<path id="Vector_21" d="M115.374 99.7455C115.305 99.6748 115.263 99.59 115.263 99.491V89.9965C115.263 89.8904 115.298 89.7985 115.367 89.7278C115.436 89.6571 115.519 89.6147 115.63 89.6147H119.622C120.897 89.6147 121.902 89.9046 122.622 90.4913C123.343 91.0781 123.704 91.8982 123.704 92.9657C123.704 93.6515 123.544 94.2312 123.232 94.7048C122.92 95.1785 122.484 95.5532 121.93 95.8148L123.891 99.3849C123.918 99.4415 123.932 99.4981 123.932 99.5475C123.932 99.6253 123.904 99.696 123.842 99.7596C123.787 99.8233 123.71 99.8515 123.627 99.8515H121.576C121.292 99.8515 121.098 99.7172 120.98 99.4556L119.379 96.2814H117.986V99.4839C117.986 99.59 117.952 99.6819 117.876 99.7455C117.806 99.8162 117.716 99.8515 117.605 99.8515H115.616C115.519 99.8515 115.436 99.8162 115.36 99.7384M119.608 94.1393C120.024 94.1393 120.343 94.0332 120.557 93.8282C120.779 93.6161 120.883 93.3263 120.883 92.9586C120.883 92.591 120.772 92.2941 120.557 92.0679C120.343 91.8416 120.024 91.7285 119.608 91.7285H117.993V94.1393H119.608Z" fill="#D50030"/>
<g id="Group 16446">
<path id="Vector_22" d="M106.193 27.784C106.193 27.784 106.206 27.7557 106.206 27.7345C106.206 27.7133 106.213 27.6992 106.22 27.678C106.22 27.6638 106.22 27.6497 106.227 27.6356C106.227 27.6143 106.227 27.6002 106.234 27.579C106.234 27.5649 106.234 27.5507 106.234 27.5366C106.234 27.5154 106.234 27.5012 106.234 27.48C106.234 27.4659 106.234 27.4447 106.234 27.4305C106.234 27.4164 106.234 27.3952 106.234 27.3811C106.234 27.3669 106.234 27.3457 106.234 27.3245C106.234 27.3104 106.234 27.2962 106.234 27.2821C106.234 27.2609 106.234 27.2467 106.227 27.2255C106.227 27.2114 106.227 27.1972 106.22 27.1831C106.22 27.1619 106.213 27.1478 106.206 27.1265C106.206 27.1124 106.199 27.0983 106.193 27.0771C106.193 27.0629 106.179 27.0417 106.172 27.0276C106.172 27.0064 106.158 26.9922 106.144 26.971C106.144 26.9639 106.137 26.9498 106.13 26.9427C106.13 26.9427 106.13 26.9286 106.123 26.9215C102.513 19.9014 97.1907 14.1255 90.3025 9.75645C84.8141 6.27112 78.3348 3.66242 71.0377 2.0152C58.6612 -0.77731 48.3566 0.134673 47.92 0.170021C47.6497 0.1983 47.4003 0.325553 47.227 0.530573C47.1439 0.622478 45.259 2.86355 44.6214 6.97101C43.5889 13.567 46.5271 19.9579 49.2436 24.2351C48.1764 25.6985 47.525 26.7165 47.428 26.872C47.428 26.8791 47.421 26.8862 47.4141 26.8932C47.4003 26.9074 47.3933 26.9286 47.3864 26.9498C47.3795 26.9639 47.3725 26.9781 47.3656 26.9922C47.3656 27.0064 47.3517 27.0205 47.3448 27.0417C47.3448 27.0558 47.331 27.0771 47.324 27.0912C47.324 27.1053 47.3171 27.1195 47.3102 27.1336C47.3102 27.1548 47.2963 27.176 47.2963 27.1902C47.2963 27.2043 47.2963 27.2184 47.2894 27.2326C47.2894 27.2538 47.2825 27.2679 47.2825 27.2891C47.2825 27.3033 47.2825 27.3174 47.2825 27.3316C47.2825 27.3528 47.2825 27.3669 47.2825 27.3881C47.2825 27.4023 47.2825 27.4235 47.2825 27.4376C47.2825 27.4517 47.2825 27.473 47.2825 27.4871C47.2825 27.5012 47.2825 27.5224 47.2825 27.5437C47.2825 27.5578 47.2825 27.5719 47.2825 27.5861C47.2825 27.6073 47.2824 27.6285 47.2894 27.6426C47.2894 27.6568 47.2894 27.6709 47.2963 27.685C47.2963 27.7063 47.3032 27.7275 47.3102 27.7416C47.3102 27.7557 47.3171 27.7699 47.324 27.784C47.324 27.8052 47.3379 27.8194 47.3448 27.8406C47.3448 27.8547 47.3587 27.8689 47.3656 27.8901C47.3656 27.9042 47.3795 27.9183 47.3864 27.9325C47.3933 27.9537 47.4072 27.9678 47.4141 27.989C47.4141 27.9961 47.421 28.0032 47.428 28.0102C47.525 28.1658 48.1764 29.1838 49.2436 30.6472C46.5271 34.9244 43.5889 41.3153 44.6214 47.9113C45.259 52.0187 47.1508 54.2598 47.227 54.3517C47.4003 54.5567 47.6497 54.684 47.92 54.7123C48.0932 54.7264 49.8534 54.8819 52.6946 54.8819C56.9495 54.8819 63.6229 54.5355 71.0377 52.86C78.3348 51.2128 84.8141 48.6041 90.3025 45.1188C97.1838 40.7427 102.506 34.9668 106.123 27.9537C106.123 27.9537 106.123 27.9396 106.13 27.9325C106.13 27.9254 106.137 27.9113 106.144 27.9042C106.151 27.8901 106.165 27.8689 106.172 27.8476C106.172 27.8335 106.186 27.8123 106.193 27.7982M67.8916 26.4267C67.8916 26.4267 67.8778 26.4266 67.8639 26.4337C67.8431 26.4337 67.8223 26.4479 67.8085 26.4549C67.7946 26.4549 67.7807 26.4691 67.76 26.4761C67.7461 26.4761 67.7322 26.4903 67.7114 26.4973C67.6907 26.5044 67.6768 26.5115 67.6629 26.5256C67.6491 26.5256 67.6421 26.5398 67.6283 26.5468C67.6144 26.5539 67.5936 26.568 67.5798 26.5822C67.5659 26.5822 67.559 26.5963 67.5451 26.6034C67.5313 26.6175 67.5174 26.6246 67.4966 26.6387C67.4828 26.6458 67.4758 26.6599 67.462 26.667C67.4481 26.6812 67.4343 26.6882 67.4204 26.7024C67.4065 26.7165 67.3996 26.7306 67.3857 26.7377C67.3788 26.7519 67.365 26.7589 67.358 26.7731C67.3442 26.7872 67.3372 26.8013 67.3234 26.8155C67.3164 26.8296 67.3095 26.8367 67.2957 26.8508C67.2818 26.865 67.2749 26.8862 67.261 26.9003C67.261 26.9145 67.2471 26.9286 67.2402 26.9357C67.2333 26.9498 67.2264 26.971 67.2125 26.9851C67.2056 26.9993 67.1986 27.0134 67.1917 27.0346C67.1917 27.0488 67.1779 27.0629 67.1779 27.0771C67.1709 27.0983 67.164 27.1195 67.1571 27.1336C67.1571 27.1407 67.1571 27.1478 67.1501 27.1548C67.1501 27.1548 67.1501 27.1619 67.1501 27.169C67.1501 27.1902 67.1432 27.2114 67.1363 27.2326V27.2679C67.1363 27.2679 67.1224 27.3104 67.1224 27.3316C67.1224 27.3457 67.1224 27.3598 67.1224 27.374C67.1224 27.3952 67.1224 27.4093 67.1224 27.4305C67.1224 27.4517 67.1224 27.4659 67.1224 27.4871C67.1224 27.5012 67.1224 27.5154 67.1224 27.5295C67.1224 27.5507 67.1224 27.5719 67.1224 27.5931V27.6285C67.1224 27.6285 67.1363 27.6709 67.1432 27.6921C67.1432 27.6921 67.1432 27.6992 67.1432 27.7063V27.7204C67.164 27.7699 67.1779 27.8194 67.1986 27.8689C67.1986 27.8689 67.1986 27.883 67.2056 27.883C67.2264 27.9254 67.2472 27.9678 67.2749 28.0032L67.2887 28.0244C67.3164 28.0668 67.3442 28.1022 67.3788 28.1375C67.3857 28.1446 67.3927 28.1516 67.3996 28.1587C67.4343 28.1941 67.4689 28.2294 67.5105 28.2577C67.5105 28.2577 67.5174 28.2577 67.5243 28.2648C67.5659 28.293 67.6006 28.3213 67.6421 28.3425C67.6421 28.3425 67.6491 28.3425 67.656 28.3496C67.6976 28.3708 67.7461 28.392 67.7877 28.4061C67.8015 28.4061 67.8085 28.4061 67.8223 28.4132C67.8362 28.4132 67.85 28.4203 67.8639 28.4274C70.2339 29.0778 76.5746 31.5521 77.427 35.193C77.8636 37.0594 76.8102 39.1591 74.2809 41.4355C72.4237 43.1039 70.3794 43.7614 68.0233 43.4362C59.9847 42.3263 51.3918 30.2018 49.5208 27.4235C51.3918 24.6451 59.9847 12.5207 68.0233 11.4107C70.3794 11.0855 72.4237 11.743 74.2809 13.4114C76.8033 15.6879 77.8636 17.7805 77.427 19.6469C76.5746 23.2807 70.2339 25.7621 67.857 26.4125M89.2284 43.316C83.9479 46.6741 77.6973 49.1909 70.6497 50.7886C60.0055 53.2064 50.6919 52.7823 48.5645 52.6479C47.4973 51.0926 43.5542 43.9806 50.588 32.4217C54.3855 37.3068 61.0658 44.5956 67.7738 45.5217C68.252 45.5854 68.7301 45.6207 69.1944 45.6207C71.5852 45.6207 73.7681 44.7441 75.7015 43.0049C78.8407 40.1842 80.1088 37.3917 79.4851 34.7264C78.6258 31.0573 74.2878 28.6677 71.308 27.4305C74.2878 26.2004 78.6189 23.8109 79.4851 20.1417C80.1158 17.4694 78.8407 14.684 75.7015 11.8632C73.3939 9.78473 70.7259 8.94344 67.7738 9.34641C61.0658 10.2725 54.3785 17.5613 50.588 22.4464C47.3517 17.123 45.9935 11.948 46.6518 7.43054C47.0538 4.69459 48.0932 2.91304 48.5645 2.22022C50.685 2.07882 59.9501 1.66171 70.5873 4.06539C77.6488 5.66313 83.9133 8.17285 89.2007 11.5309C95.6177 15.6101 100.607 20.9548 104.037 27.4305C100.607 33.8993 95.6246 39.2368 89.2284 43.316Z" fill="#F4F4F4"/>
<path id="Vector_23" d="M91.4379 18.8546C90.0866 18.8546 88.9847 19.9575 88.9847 21.3219C88.9847 22.6864 90.0796 23.7892 91.4379 23.7892C92.7961 23.7892 93.891 22.6864 93.891 21.3219C93.891 19.9575 92.7961 18.8546 91.4379 18.8546Z" fill="#F4F4F4"/>
<path id="Vector_24" d="M43.685 24.2417C42.7495 23.1035 41.7932 21.9582 40.8646 20.8483C40.4627 20.3676 40.0608 19.8798 39.6588 19.399L38.1412 17.5751C37.0532 16.2742 35.9722 14.9734 34.8911 13.6655C33.7824 12.3364 32.3618 11.7426 30.7818 11.9547C29.1256 12.1809 27.8643 13.1565 27.2407 14.7118C26.5893 16.3379 26.8595 17.9427 28.0307 19.3566C29.7284 21.4068 31.4678 23.4994 33.1518 25.5213C33.6507 26.1152 34.1427 26.7161 34.6486 27.317L34.5239 27.4725C33.9903 28.1159 33.4705 28.7451 32.9508 29.3743L31.7173 30.8589C30.5462 32.2728 29.3404 33.7292 28.1485 35.1572C27.0328 36.5005 26.7001 38.0346 27.1991 39.597C27.705 41.1876 28.8692 42.241 30.4838 42.5803C30.8164 42.651 31.1421 42.6864 31.4609 42.6864C32.7776 42.6864 33.9764 42.1067 34.8981 40.9968L36.8661 38.6284C39.1183 35.9208 41.4467 33.1212 43.7197 30.3569C45.3135 28.4199 45.3066 26.1859 43.692 24.2276M42.112 29.0279C39.839 31.785 37.5106 34.5846 35.2653 37.2923L33.2973 39.6606C32.639 40.4453 31.8559 40.7352 30.8996 40.5372C30.0195 40.3534 29.4582 39.8373 29.1741 38.9678C28.8969 38.0841 29.0701 37.3064 29.7354 36.5146C30.9342 35.0795 32.14 33.6231 33.3111 32.2092L34.5377 30.7246C35.0574 30.0954 35.5772 29.4662 36.1108 28.8228L36.7968 27.9957C37.1156 27.6069 37.1156 27.0413 36.7968 26.6525C36.1108 25.8253 35.4247 25.0052 34.7456 24.1852C33.0617 22.1632 31.3223 20.0777 29.6314 18.0275C28.9523 17.2074 28.8068 16.4086 29.1741 15.5107C29.5206 14.6482 30.1373 14.1675 31.0659 14.0402C31.1837 14.0261 31.3015 14.019 31.4124 14.019C32.1331 14.019 32.736 14.3442 33.3042 15.0229C34.3853 16.3237 35.4732 17.6316 36.5543 18.9324L38.0719 20.7493C38.4738 21.2301 38.8758 21.7179 39.2777 22.1986C40.1993 23.3085 41.1557 24.4538 42.0912 25.5849C43.0683 26.7726 43.0821 27.8684 42.1189 29.042" fill="#F4F4F4"/>
</g>
</g>
<defs>
<clipPath id="clip0_0_73">
<rect width="128" height="100" fill="white"/>
</clipPath>
</defs>
</svg>
