<svg preserveAspectRatio="none" overflow="visible" style="display: block;" width="40" height="40" viewBox="0 0 40 40" fill="none" xmlns="http://www.w3.org/2000/svg">
<g id="bi:stars" clip-path="url(#clip0_0_4)">
<path id="Vector" d="M19.1425 15.6175C19.4175 14.7925 20.5825 14.7925 20.8575 15.6175L22.47 20.46C22.8249 21.5245 23.4229 22.4917 24.2166 23.2849C25.0103 24.0782 25.9778 24.6757 27.0425 25.03L31.8825 26.6425C32.7075 26.9175 32.7075 28.0825 31.8825 28.3575L27.04 29.97C25.9755 30.3249 25.0083 30.9229 24.2151 31.7166C23.4218 32.5103 22.8243 33.4778 22.47 34.5425L20.8575 39.3825C20.7982 39.5632 20.6834 39.7205 20.5294 39.832C20.3754 39.9435 20.1901 40.0036 20 40.0036C19.8099 40.0036 19.6246 39.9435 19.4706 39.832C19.3166 39.7205 19.2018 39.5632 19.1425 39.3825L17.53 34.54C17.1753 33.4758 16.5777 32.5087 15.7845 31.7155C14.9913 30.9223 14.0242 30.3247 12.96 29.97L8.1175 28.3575C7.93685 28.2982 7.77953 28.1834 7.668 28.0294C7.55647 27.8754 7.49642 27.6901 7.49642 27.5C7.49642 27.3099 7.55647 27.1246 7.668 26.9706C7.77953 26.8166 7.93685 26.7018 8.1175 26.6425L12.96 25.03C14.0242 24.6753 14.9913 24.0777 15.7845 23.2845C16.5777 22.4913 17.1753 21.5242 17.53 20.46L19.1425 15.6175ZM9.485 2.87C9.52085 2.76174 9.58991 2.66752 9.68236 2.60075C9.77481 2.53397 9.88595 2.49803 10 2.49803C10.114 2.49803 10.2252 2.53397 10.3176 2.60075C10.4101 2.66752 10.4791 2.76174 10.515 2.87L11.4825 5.775C11.915 7.07 12.93 8.085 14.225 8.5175L17.13 9.485C17.2383 9.52085 17.3325 9.58991 17.3993 9.68236C17.466 9.77481 17.502 9.88596 17.502 10C17.502 10.114 17.466 10.2252 17.3993 10.3176C17.3325 10.4101 17.2383 10.4792 17.13 10.515L14.225 11.4825C13.5859 11.6946 13.0052 12.053 12.5291 12.5291C12.053 13.0052 11.6946 13.5859 11.4825 14.225L10.515 17.13C10.4791 17.2383 10.4101 17.3325 10.3176 17.3993C10.2252 17.466 10.114 17.502 10 17.502C9.88595 17.502 9.77481 17.466 9.68236 17.3993C9.58991 17.3325 9.52085 17.2383 9.485 17.13L8.5175 14.225C8.3054 13.5859 7.94703 13.0052 7.4709 12.5291C6.99478 12.053 6.41406 11.6946 5.775 11.4825L2.87 10.515C2.76174 10.4792 2.66752 10.4101 2.60075 10.3176C2.53397 10.2252 2.49803 10.114 2.49803 10C2.49803 9.88596 2.53397 9.77481 2.60075 9.68236C2.66752 9.58991 2.76174 9.52085 2.87 9.485L5.775 8.5175C6.41406 8.3054 6.99478 7.94703 7.4709 7.4709C7.94703 6.99478 8.3054 6.41406 8.5175 5.775L9.485 2.87ZM27.1575 0.2475C27.1822 0.176316 27.2284 0.11459 27.2898 0.070904C27.3512 0.0272182 27.4247 0.00374342 27.5 0.00374342C27.5753 0.00374342 27.6488 0.0272182 27.7102 0.070904C27.7716 0.11459 27.8178 0.176316 27.8425 0.2475L28.4875 2.1825C28.775 3.0475 29.4525 3.725 30.3175 4.0125L32.2525 4.6575C32.3237 4.68218 32.3854 4.72842 32.4291 4.78981C32.4728 4.85119 32.4963 4.92466 32.4963 5C32.4963 5.07534 32.4728 5.14881 32.4291 5.21019C32.3854 5.27157 32.3237 5.31782 32.2525 5.3425L30.3175 5.9875C29.8916 6.13 29.5046 6.36947 29.187 6.68704C28.8695 7.00461 28.63 7.3916 28.4875 7.8175L27.8425 9.7525C27.8178 9.82368 27.7716 9.88541 27.7102 9.9291C27.6488 9.97278 27.5753 9.99626 27.5 9.99626C27.4247 9.99626 27.3512 9.97278 27.2898 9.9291C27.2284 9.88541 27.1822 9.82368 27.1575 9.7525L26.5125 7.8175C26.37 7.3916 26.1305 7.00461 25.813 6.68704C25.4954 6.36947 25.1084 6.13 24.6825 5.9875L22.75 5.3425C22.6788 5.31782 22.6171 5.27157 22.5734 5.21019C22.5297 5.14881 22.5062 5.07534 22.5062 5C22.5062 4.92466 22.5297 4.85119 22.5734 4.78981C22.6171 4.72842 22.6788 4.68218 22.75 4.6575L24.685 4.0125C25.55 3.725 26.2275 3.0475 26.515 2.1825L27.1575 0.2475Z" fill="#F8F8F8"/>
</g>
<defs>
<clipPath id="clip0_0_4">
<rect width="40" height="40" fill="white"/>
</clipPath>
</defs>
</svg>
